<svg width="500" height="438" viewBox="0 0 500 438" fill="none" xmlns="http://www.w3.org/2000/svg">
<g filter="url(#filter0_f_1_93)">
<path fill-rule="evenodd" clip-rule="evenodd" d="M18.7447 254.868C10.1353 259.838 10.1353 267.897 18.7448 272.867L52.1402 292.146C60.7496 297.116 74.7083 297.116 83.3178 292.146L466.099 71.1663C474.709 66.1961 474.709 58.1377 466.099 53.1675L432.704 33.8883C424.094 28.9181 410.136 28.9181 401.526 33.8883L18.7447 254.868ZM94.8487 298.803C86.2392 303.773 86.2392 311.831 94.8487 316.802L128.244 336.081C136.854 341.051 150.812 341.051 159.422 336.081L542.203 115.101C550.813 110.131 550.813 102.073 542.203 97.1023L508.808 77.8231C500.198 72.8529 486.24 72.8529 477.63 77.8231L94.8487 298.803ZM170.953 360.737C162.343 355.766 162.343 347.708 170.953 342.738L553.734 121.758C562.344 116.788 576.302 116.788 584.912 121.758L618.307 141.037C626.917 146.007 626.917 154.066 618.307 159.036L235.526 380.016C226.916 384.986 212.958 384.986 204.348 380.016L170.953 360.737ZM247.057 386.673C238.447 391.643 238.447 399.701 247.057 404.671L280.452 423.951C289.061 428.921 303.02 428.921 311.63 423.951L694.411 202.971C703.021 198 703.021 189.942 694.411 184.972L661.016 165.693C652.406 160.722 638.448 160.722 629.838 165.693L247.057 386.673Z" fill="url(#paint0_linear_1_93)" fill-opacity="0.42"/>
</g>
<path d="M394.357 1.77248L21.9087 216.787C10.4457 223.404 10.4457 234.134 21.9087 240.751L44.9705 254.065C56.4335 260.682 75.0187 260.682 86.4817 254.065L458.93 39.0505C470.393 32.4329 470.393 21.7036 458.93 15.0861L435.868 1.77248C424.405 -4.84512 405.82 -4.84512 394.357 1.77248Z" fill="#1E1E1E" fill-opacity="0.42"/>
<path d="M91.0941 227.438C97.4624 223.761 97.4624 217.8 91.0941 214.124C84.7257 210.448 74.4006 210.448 68.0323 214.124C61.664 217.8 61.664 223.761 68.0323 227.438C74.4006 231.114 84.7257 231.114 91.0941 227.438Z" fill="#D9D9D9"/>
<path d="M126.932 189.441L125.713 190.144C125.29 189.984 124.856 189.879 124.411 189.83C123.969 189.779 123.53 189.775 123.094 189.818C122.658 189.858 122.241 189.94 121.841 190.065C121.441 190.19 121.074 190.349 120.74 190.542C120.131 190.893 119.733 191.301 119.546 191.764C119.363 192.226 119.425 192.713 119.733 193.228C120.044 193.74 120.635 194.248 121.507 194.751C122.378 195.254 123.258 195.596 124.145 195.775C125.037 195.953 125.882 195.989 126.681 195.883C127.484 195.775 128.19 195.545 128.799 195.194C129.133 195.001 129.408 194.789 129.624 194.558C129.841 194.328 129.985 194.087 130.057 193.838C130.129 193.584 130.121 193.33 130.032 193.075C129.944 192.816 129.762 192.565 129.487 192.323L130.705 191.62C131.128 191.969 131.421 192.332 131.585 192.706C131.749 193.08 131.793 193.454 131.718 193.826C131.639 194.197 131.449 194.555 131.148 194.899C130.85 195.241 130.447 195.559 129.939 195.852C129.081 196.347 128.108 196.667 127.02 196.811C125.932 196.954 124.811 196.914 123.654 196.689C122.498 196.464 121.389 196.045 120.328 195.432C119.266 194.819 118.541 194.179 118.151 193.512C117.761 192.844 117.69 192.196 117.94 191.568C118.188 190.941 118.742 190.379 119.6 189.883C120.108 189.59 120.658 189.358 121.251 189.186C121.847 189.012 122.468 188.903 123.114 188.859C123.756 188.814 124.401 188.839 125.05 188.933C125.695 189.026 126.322 189.195 126.932 189.441ZM126.758 185.91L136.822 191.72L135.662 192.389L125.599 186.579L126.758 185.91ZM138.946 190.493L131.398 186.136L132.558 185.467L140.105 189.824L138.946 190.493ZM130.73 185.07C130.504 185.2 130.232 185.268 129.914 185.274C129.6 185.278 129.334 185.217 129.118 185.092C128.902 184.967 128.797 184.814 128.804 184.633C128.814 184.449 128.931 184.292 129.157 184.162C129.384 184.031 129.654 183.964 129.968 183.96C130.286 183.955 130.553 184.014 130.769 184.139C130.985 184.264 131.089 184.418 131.079 184.602C131.072 184.783 130.956 184.939 130.73 185.07ZM145.551 186.862C144.824 187.281 144.036 187.551 143.188 187.67C142.339 187.785 141.482 187.758 140.618 187.588C139.753 187.414 138.934 187.104 138.161 186.657C137.388 186.211 136.847 185.736 136.539 185.233C136.231 184.727 136.166 184.231 136.343 183.747C136.519 183.259 136.949 182.818 137.63 182.425C138.023 182.198 138.477 182.012 138.991 181.866C139.505 181.721 140.067 181.642 140.677 181.631C141.283 181.618 141.92 181.696 142.588 181.866C143.256 182.036 143.942 182.325 144.647 182.731L145.138 183.015L139.32 186.374L138.318 185.795L142.957 183.117C142.531 182.871 142.065 182.701 141.561 182.607C141.06 182.51 140.557 182.496 140.052 182.564C139.551 182.63 139.091 182.784 138.672 183.026C138.21 183.293 137.925 183.59 137.817 183.917C137.709 184.241 137.746 184.559 137.93 184.873C138.113 185.187 138.413 185.464 138.829 185.704L139.497 186.09C140.067 186.419 140.649 186.641 141.242 186.757C141.835 186.868 142.411 186.882 142.971 186.796C143.528 186.709 144.041 186.531 144.509 186.26C144.814 186.084 145.046 185.901 145.207 185.71C145.368 185.515 145.451 185.316 145.458 185.111C145.461 184.905 145.381 184.698 145.217 184.49L146.652 184.025C146.914 184.312 147.05 184.62 147.06 184.947C147.066 185.272 146.945 185.599 146.696 185.928C146.444 186.256 146.062 186.567 145.551 186.862ZM146.902 180.658L151.442 183.279L150.283 183.948L142.735 179.591L143.855 178.945L145.035 179.625L145.133 179.569C144.927 179.245 144.888 178.912 145.015 178.57C145.14 178.226 145.487 177.889 146.058 177.56C146.568 177.265 147.119 177.068 147.713 176.967C148.302 176.865 148.916 176.874 149.55 176.996C150.183 177.115 150.82 177.36 151.462 177.731L156.257 180.499L155.099 181.168L150.381 178.445C149.789 178.103 149.172 177.925 148.533 177.912C147.891 177.897 147.302 178.044 146.765 178.354C146.395 178.568 146.144 178.805 146.013 179.066C145.885 179.325 145.892 179.592 146.033 179.866C146.174 180.14 146.463 180.405 146.902 180.658ZM154.112 173.023L155.095 173.591L151.184 175.849L150.201 175.281L154.112 173.023ZM149.532 173.58L150.692 172.91L157.886 177.063C158.213 177.252 158.506 177.367 158.766 177.406C159.024 177.442 159.257 177.433 159.463 177.378C159.669 177.319 159.858 177.24 160.028 177.143C160.156 177.069 160.254 177.004 160.323 176.95C160.388 176.893 160.441 176.847 160.481 176.813L161.758 177.279C161.709 177.341 161.629 177.421 161.517 177.519C161.408 177.62 161.247 177.732 161.03 177.857C160.703 178.046 160.312 178.191 159.856 178.291C159.404 178.39 158.931 178.415 158.437 178.368C157.944 178.319 157.479 178.168 157.04 177.914L149.532 173.58ZM157.389 168.227L158.844 167.387L170.617 170.235L170.735 170.167L165.801 163.37L167.256 162.53L177.32 168.34L176.179 168.998L168.534 164.584L168.436 164.641L172.937 170.87L171.836 171.506L161.045 168.907L160.947 168.964L168.593 173.378L167.453 174.036L157.389 168.227ZM182.928 165.284C182.2 165.704 181.412 165.974 180.564 166.092C179.715 166.208 178.859 166.181 177.994 166.01C177.129 165.836 176.31 165.527 175.536 165.08C174.763 164.634 174.224 164.159 173.916 163.656C173.607 163.149 173.542 162.654 173.719 162.17C173.895 161.682 174.324 161.241 175.006 160.848C175.399 160.621 175.853 160.434 176.367 160.289C176.882 160.143 177.443 160.065 178.053 160.053C178.659 160.04 179.296 160.119 179.964 160.289C180.633 160.459 181.319 160.747 182.023 161.154L182.515 161.438L176.696 164.797L175.694 164.218L180.333 161.54C179.907 161.294 179.442 161.124 178.938 161.029C178.437 160.933 177.933 160.919 177.428 160.987C176.927 161.053 176.467 161.207 176.048 161.449C175.586 161.716 175.301 162.013 175.194 162.34C175.085 162.663 175.123 162.982 175.307 163.295C175.489 163.61 175.789 163.887 176.205 164.127L176.873 164.513C177.443 164.842 178.025 165.064 178.618 165.179C179.211 165.291 179.787 165.304 180.348 165.219C180.905 165.132 181.417 164.954 181.886 164.683C182.19 164.507 182.422 164.324 182.584 164.132C182.743 163.938 182.828 163.738 182.834 163.534C182.837 163.328 182.757 163.121 182.593 162.913L184.029 162.447C184.29 162.735 184.426 163.043 184.436 163.37C184.442 163.695 184.321 164.022 184.072 164.351C183.82 164.678 183.439 164.989 182.928 165.284ZM190.981 160.635C190.253 161.055 189.466 161.324 188.618 161.443C187.769 161.559 186.912 161.532 186.047 161.361C185.183 161.187 184.364 160.877 183.591 160.431C182.818 159.984 182.277 159.51 181.969 159.007C181.661 158.5 181.595 158.005 181.773 157.52C181.95 157.032 182.379 156.592 183.06 156.198C183.453 155.971 183.906 155.785 184.421 155.639C184.935 155.494 185.498 155.415 186.106 155.404C186.712 155.391 187.349 155.47 188.017 155.64C188.686 155.81 189.372 156.098 190.076 156.505L190.568 156.789L184.751 160.147L183.748 159.568L188.386 156.891C187.96 156.645 187.496 156.474 186.991 156.38C186.49 156.283 185.987 156.269 185.483 156.337C184.982 156.403 184.521 156.558 184.102 156.8C183.64 157.066 183.355 157.363 183.247 157.69C183.138 158.014 183.176 158.333 183.36 158.646C183.544 158.96 183.843 159.237 184.259 159.477L184.928 159.863C185.498 160.192 186.079 160.414 186.671 160.53C187.265 160.641 187.842 160.655 188.401 160.57C188.958 160.483 189.471 160.304 189.939 160.034C190.244 159.858 190.477 159.674 190.637 159.483C190.798 159.288 190.881 159.089 190.887 158.885C190.89 158.679 190.81 158.472 190.646 158.264L192.082 157.798C192.344 158.085 192.48 158.393 192.489 158.72C192.496 159.045 192.375 159.372 192.125 159.702C191.873 160.029 191.492 160.34 190.981 160.635ZM191.448 151.469L192.431 152.037L188.52 154.295L187.537 153.727L191.448 151.469ZM186.868 152.026L188.028 151.356L195.222 155.509C195.549 155.698 195.842 155.813 196.1 155.853C196.36 155.888 196.593 155.879 196.798 155.824C197.005 155.765 197.194 155.686 197.364 155.589C197.492 155.515 197.59 155.45 197.659 155.396C197.724 155.339 197.777 155.293 197.815 155.26L199.094 155.725C199.045 155.787 198.964 155.867 198.852 155.966C198.744 156.066 198.582 156.179 198.366 156.303C198.039 156.492 197.647 156.637 197.192 156.737C196.74 156.836 196.266 156.862 195.771 156.814C195.28 156.765 194.815 156.614 194.376 156.36L186.868 152.026ZM200.739 154.82L193.192 150.463L194.352 149.793L201.899 154.15L200.739 154.82ZM192.524 149.396C192.298 149.526 192.026 149.594 191.709 149.6C191.393 149.604 191.128 149.543 190.912 149.419C190.696 149.294 190.591 149.141 190.598 148.959C190.608 148.776 190.726 148.619 190.952 148.488C191.178 148.358 191.447 148.291 191.763 148.287C192.08 148.281 192.347 148.34 192.563 148.465C192.78 148.59 192.883 148.744 192.873 148.928C192.866 149.11 192.75 149.265 192.524 149.396ZM200.643 149.633L205.183 152.254L204.023 152.924L196.476 148.567L197.596 147.92L198.776 148.601L198.874 148.544C198.667 148.221 198.628 147.888 198.756 147.546C198.88 147.202 199.228 146.865 199.797 146.536C200.308 146.241 200.86 146.043 201.453 145.943C202.043 145.841 202.655 145.851 203.291 145.971C203.924 146.09 204.561 146.335 205.203 146.706L209.998 149.475L208.838 150.144L204.121 147.421C203.528 147.079 202.913 146.901 202.274 146.887C201.632 146.872 201.042 147.02 200.505 147.33C200.135 147.544 199.884 147.781 199.753 148.042C199.625 148.301 199.632 148.568 199.773 148.842C199.913 149.116 200.204 149.38 200.643 149.633ZM218.152 148.217C217.591 148.541 217.037 148.777 216.491 148.926C215.946 149.078 215.424 149.164 214.923 149.185C214.428 149.206 213.972 149.186 213.553 149.125L213.828 148.217C214.07 148.236 214.36 148.25 214.697 148.26C215.038 148.271 215.412 148.235 215.822 148.149C216.238 148.064 216.674 147.89 217.13 147.627C217.739 147.276 218.094 146.9 218.196 146.501C218.298 146.102 218.034 145.721 217.405 145.358L215.872 144.473L215.773 144.53C215.825 144.658 215.874 144.827 215.921 145.035C215.966 145.239 215.922 145.471 215.787 145.73C215.653 145.985 215.34 146.255 214.849 146.538C214.24 146.89 213.548 147.123 212.776 147.236C212.006 147.348 211.205 147.326 210.373 147.171C209.545 147.013 208.737 146.708 207.951 146.254C207.178 145.808 206.64 145.341 206.338 144.853C206.034 144.363 205.966 143.888 206.137 143.426C206.304 142.963 206.706 142.548 207.341 142.181C207.832 141.897 208.304 141.72 208.756 141.648C209.208 141.572 209.614 141.55 209.975 141.579C210.335 141.606 210.623 141.633 210.839 141.659L210.958 141.591L209.759 140.898L210.879 140.252L218.643 144.734C219.291 145.108 219.671 145.498 219.783 145.902C219.901 146.307 219.807 146.707 219.503 147.102C219.205 147.498 218.754 147.87 218.152 148.217ZM213.965 145.846C214.43 145.577 214.717 145.289 214.824 144.981C214.933 144.672 214.87 144.355 214.638 144.028C214.405 143.7 214.011 143.376 213.454 143.054C212.911 142.74 212.349 142.511 211.768 142.366C211.188 142.22 210.62 142.172 210.064 142.22C209.506 142.27 208.993 142.43 208.521 142.702C208.029 142.987 207.744 143.295 207.665 143.628C207.59 143.958 207.68 144.292 207.935 144.629C208.194 144.964 208.579 145.279 209.09 145.574C209.614 145.876 210.159 146.097 210.727 146.234C211.293 146.369 211.853 146.409 212.408 146.353C212.961 146.295 213.48 146.126 213.965 145.846Z" fill="white"/>
<path d="M470.461 45.7073L98.0126 260.721C86.5496 267.339 86.5496 278.068 98.0126 284.686L121.074 298C132.537 304.617 151.123 304.617 162.586 298L535.034 82.9853C546.497 76.3677 546.497 65.6384 535.034 59.0208L511.972 45.7073C500.509 39.0897 481.924 39.0897 470.461 45.7073Z" fill="#1E1E1E" fill-opacity="0.42"/>
<path d="M167.198 271.372C173.566 267.696 173.566 261.735 167.198 258.059C160.83 254.382 150.505 254.382 144.136 258.059C137.768 261.735 137.768 267.696 144.136 271.372C150.505 275.049 160.83 275.049 167.198 271.372Z" fill="#D9D9D9"/>
<path d="M196.091 246.704L186.027 240.895L189.428 238.932C190.214 238.478 190.994 238.183 191.767 238.047C192.537 237.909 193.275 237.904 193.983 238.033C194.69 238.161 195.341 238.397 195.934 238.739C196.526 239.081 196.931 239.455 197.147 239.86C197.363 240.264 197.352 240.687 197.113 241.128C196.87 241.566 196.359 242.011 195.58 242.461L192.828 244.049L191.727 243.414L194.44 241.848C194.977 241.538 195.331 241.243 195.501 240.963C195.675 240.681 195.691 240.415 195.55 240.163C195.409 239.908 195.137 239.664 194.735 239.431C194.332 239.199 193.904 239.039 193.452 238.952C193 238.865 192.527 238.869 192.032 238.966C191.534 239.061 191.013 239.265 190.469 239.579L188.327 240.815L197.309 246.001L196.091 246.704ZM196.307 241.36L203.304 242.54L201.889 243.357L194.931 242.154L196.307 241.36ZM206.455 237.158L201.993 234.582L203.153 233.913L210.701 238.27L209.541 238.94L208.263 238.202L208.185 238.247C208.391 238.571 208.442 238.918 208.337 239.289C208.229 239.657 207.89 240.006 207.32 240.335C206.848 240.608 206.326 240.79 205.752 240.883C205.176 240.974 204.573 240.958 203.944 240.837C203.312 240.715 202.675 240.468 202.033 240.097L197.237 237.328L198.396 236.659L203.114 239.382C203.664 239.7 204.257 239.864 204.893 239.876C205.531 239.885 206.091 239.751 206.573 239.473C206.861 239.307 207.081 239.095 207.231 238.838C207.385 238.578 207.412 238.302 207.31 238.009C207.212 237.714 206.927 237.431 206.455 237.158ZM209.444 233.753L213.984 236.375L212.824 237.044L205.277 232.687L206.397 232.04L207.577 232.721L207.675 232.664C207.469 232.341 207.429 232.008 207.557 231.666C207.681 231.321 208.029 230.985 208.599 230.656C209.11 230.361 209.662 230.163 210.255 230.063C210.844 229.961 211.457 229.97 212.092 230.091C212.725 230.21 213.362 230.455 214.004 230.826L218.8 233.595L217.64 234.264L212.923 231.541C212.33 231.199 211.714 231.021 211.075 231.008C210.433 230.992 209.843 231.14 209.306 231.45C208.936 231.664 208.685 231.901 208.554 232.162C208.427 232.421 208.433 232.688 208.574 232.962C208.715 233.236 209.005 233.5 209.444 233.753ZM217.538 229.081L222.078 231.702L220.919 232.371L213.371 228.014L214.491 227.367L215.671 228.048L215.769 227.991C215.563 227.668 215.523 227.335 215.651 226.993C215.776 226.649 216.123 226.312 216.693 225.983C217.204 225.688 217.756 225.49 218.349 225.39C218.938 225.288 219.551 225.298 220.187 225.418C220.819 225.538 221.456 225.783 222.098 226.153L226.894 228.922L225.734 229.591L221.017 226.868C220.424 226.526 219.808 226.348 219.169 226.335C218.527 226.32 217.938 226.467 217.4 226.777C217.03 226.991 216.78 227.228 216.649 227.489C216.521 227.748 216.527 228.015 216.668 228.289C216.809 228.564 217.099 228.827 217.538 229.081ZM229.013 227.699L221.465 223.341L222.625 222.672L230.173 227.029L229.013 227.699ZM220.797 222.275C220.571 222.405 220.299 222.474 219.981 222.479C219.667 222.483 219.401 222.423 219.185 222.298C218.969 222.173 218.864 222.019 218.871 221.838C218.88 221.655 218.998 221.498 219.224 221.367C219.45 221.237 219.721 221.169 220.035 221.166C220.353 221.16 220.62 221.22 220.836 221.344C221.052 221.469 221.155 221.623 221.146 221.807C221.139 221.988 221.023 222.144 220.797 222.275ZM228.915 222.513L233.456 225.134L232.297 225.803L224.749 221.445L225.869 220.799L227.048 221.48L227.146 221.423C226.941 221.1 226.901 220.767 227.028 220.425C227.154 220.08 227.5 219.744 228.071 219.414C228.582 219.119 229.133 218.922 229.727 218.822C230.316 218.72 230.929 218.729 231.564 218.85C232.196 218.969 232.833 219.214 233.475 219.585L238.271 222.354L237.112 223.023L232.395 220.3C231.802 219.957 231.186 219.78 230.547 219.767C229.905 219.751 229.316 219.899 228.778 220.209C228.408 220.422 228.158 220.66 228.026 220.921C227.899 221.18 227.906 221.446 228.046 221.721C228.187 221.995 228.476 222.259 228.915 222.513ZM246.424 221.096C245.864 221.42 245.311 221.655 244.763 221.805C244.22 221.956 243.697 222.042 243.197 222.064C242.702 222.084 242.245 222.065 241.825 222.004L242.1 221.096C242.343 221.115 242.633 221.129 242.97 221.139C243.311 221.15 243.686 221.113 244.095 221.028C244.512 220.943 244.947 220.769 245.403 220.507C246.013 220.154 246.368 219.779 246.468 219.38C246.57 218.981 246.307 218.6 245.678 218.237L244.145 217.352L244.047 217.408C244.099 217.537 244.148 217.705 244.193 217.914C244.24 218.118 244.196 218.349 244.061 218.608C243.927 218.864 243.614 219.133 243.123 219.417C242.513 219.769 241.822 220.001 241.048 220.115C240.279 220.226 239.478 220.204 238.647 220.049C237.817 219.892 237.01 219.587 236.223 219.133C235.45 218.687 234.913 218.22 234.612 217.732C234.308 217.242 234.24 216.766 234.41 216.305C234.578 215.842 234.979 215.426 235.615 215.059C236.106 214.776 236.577 214.598 237.03 214.526C237.482 214.451 237.888 214.428 238.249 214.458C238.609 214.485 238.897 214.511 239.113 214.538L239.231 214.47L238.032 213.778L239.153 213.13L246.916 217.612C247.565 217.987 247.944 218.376 248.056 218.782C248.174 219.186 248.08 219.587 247.775 219.981C247.477 220.377 247.028 220.748 246.424 221.096ZM242.238 218.725C242.704 218.456 242.989 218.168 243.098 217.859C243.206 217.551 243.144 217.233 242.912 216.906C242.679 216.579 242.284 216.255 241.727 215.933C241.183 215.619 240.621 215.39 240.042 215.244C239.462 215.098 238.894 215.05 238.336 215.1C237.78 215.148 237.265 215.309 236.794 215.582C236.302 215.865 236.018 216.173 235.939 216.506C235.864 216.837 235.954 217.171 236.209 217.508C236.468 217.842 236.853 218.157 237.364 218.452C237.888 218.755 238.433 218.975 239 219.113C239.567 219.248 240.127 219.287 240.68 219.233C241.234 219.174 241.754 219.004 242.238 218.725ZM245.737 205.88L254.541 214.708L253.48 215.32L244.675 206.493L245.737 205.88ZM261.695 208.831L251.632 203.022L252.85 202.318L257.332 204.905L262.698 201.807L258.217 199.22L259.434 198.517L269.498 204.327L268.28 205.029L263.779 202.431L258.413 205.529L262.914 208.128L261.695 208.831ZM263.093 196.405L273.157 202.214L271.938 202.918L261.874 197.108L263.093 196.405ZM266.755 194.291L276.819 200.1L275.6 200.804L265.537 194.994L266.755 194.291ZM269.729 193.822L268.648 193.198L276.196 188.841L277.277 189.465L274.113 191.291L283.095 196.477L281.876 197.18L272.894 191.995L269.729 193.822Z" fill="white"/>
<path d="M546.565 89.6421L174.117 304.656C162.654 311.274 162.654 322.003 174.117 328.621L197.178 341.934C208.641 348.552 227.227 348.552 238.69 341.934L611.138 126.92C622.601 120.302 622.601 109.573 611.138 102.956L588.076 89.6421C576.613 83.0245 558.028 83.0245 546.565 89.6421Z" fill="#1E1E1E" fill-opacity="0.42"/>
<path d="M243.302 315.307C249.67 311.631 249.67 305.67 243.302 301.994C236.934 298.317 226.608 298.317 220.24 301.994C213.872 305.67 213.872 311.631 220.24 315.307C226.608 318.984 236.934 318.984 243.302 315.307Z" fill="#D9D9D9"/>
<path d="M274.023 289.584L261.208 285.363L262.446 284.648L272.745 288.166L272.844 288.109L266.79 282.141L268.166 281.346L278.504 284.841L278.603 284.784L272.509 278.839L273.748 278.124L281.059 285.522L279.801 286.248L269.56 282.9L269.482 282.946L275.281 288.858L274.023 289.584ZM287.692 281.874C287.011 282.267 286.252 282.519 285.412 282.628C284.577 282.736 283.724 282.705 282.852 282.535C281.984 282.362 281.16 282.051 280.381 281.601C279.595 281.148 279.051 280.669 278.75 280.166C278.451 279.661 278.395 279.167 278.582 278.685C278.773 278.201 279.208 277.762 279.889 277.369C280.571 276.976 281.329 276.725 282.164 276.617C283.003 276.507 283.858 276.54 284.73 276.714C285.604 276.886 286.435 277.199 287.22 277.653C288 278.103 288.537 278.579 288.832 279.082C289.131 279.584 289.185 280.076 288.994 280.56C288.808 281.043 288.374 281.48 287.692 281.874ZM286.651 281.272C287.169 280.974 287.462 280.651 287.531 280.305C287.6 279.959 287.498 279.615 287.226 279.272C286.954 278.93 286.566 278.614 286.061 278.322C285.557 278.031 285.006 277.806 284.41 277.647C283.815 277.489 283.214 277.428 282.612 277.465C282.009 277.503 281.449 277.672 280.932 277.971C280.414 278.27 280.122 278.593 280.056 278.941C279.991 279.289 280.097 279.635 280.371 279.979C280.646 280.323 281.036 280.641 281.54 280.932C282.045 281.223 282.594 281.447 283.187 281.604C283.78 281.761 284.376 281.82 284.976 281.78C285.575 281.741 286.133 281.571 286.651 281.272ZM292.726 278.787L285.179 274.43L286.299 273.783L287.438 274.441L287.517 274.395C287.281 274.1 287.228 273.782 287.355 273.44C287.482 273.097 287.772 272.796 288.224 272.535C288.309 272.485 288.418 272.425 288.549 272.353C288.679 272.281 288.782 272.229 288.853 272.194L290.033 272.875C289.984 272.892 289.879 272.936 289.719 273.006C289.558 273.072 289.401 273.149 289.247 273.238C288.88 273.45 288.63 273.684 288.495 273.939C288.361 274.191 288.344 274.442 288.446 274.694C288.548 274.941 288.768 275.163 289.109 275.36L293.885 278.117L292.726 278.787ZM296.204 273.602L294.748 272.785L294.984 272.649L294.926 268.803L296.361 267.974L296.4 272.059L296.302 272.116L296.204 273.602ZM297.874 275.815L287.811 270.005L288.97 269.336L299.034 275.145L297.874 275.815ZM302.67 273.046L295.987 272.592L296.006 271.65L304.144 272.195L302.67 273.046ZM308.313 269.969C307.632 270.363 306.872 270.615 306.032 270.724C305.197 270.832 304.344 270.801 303.472 270.631C302.604 270.458 301.781 270.147 301.001 269.697C300.216 269.244 299.671 268.765 299.37 268.262C299.071 267.757 299.016 267.263 299.203 266.781C299.393 266.297 299.829 265.858 300.51 265.464C301.192 265.071 301.95 264.821 302.785 264.713C303.624 264.603 304.478 264.636 305.351 264.809C306.225 264.981 307.056 265.295 307.842 265.748C308.621 266.198 309.158 266.675 309.454 267.178C309.751 267.68 309.805 268.172 309.615 268.656C309.429 269.138 308.995 269.576 308.313 269.969ZM307.272 269.368C307.788 269.07 308.083 268.747 308.152 268.401C308.22 268.055 308.118 267.71 307.846 267.368C307.574 267.026 307.187 266.709 306.682 266.418C306.178 266.127 305.626 265.902 305.03 265.743C304.435 265.584 303.835 265.524 303.233 265.561C302.63 265.599 302.069 265.768 301.553 266.066C301.035 266.365 300.742 266.689 300.677 267.036C300.612 267.384 300.717 267.731 300.991 268.075C301.267 268.419 301.656 268.737 302.16 269.028C302.665 269.319 303.214 269.543 303.807 269.7C304.4 269.857 304.997 269.916 305.596 269.876C306.195 269.837 306.754 269.667 307.272 269.368ZM315.017 262.355L310.556 259.78L311.715 259.111L319.262 263.467L318.103 264.136L316.825 263.399L316.746 263.445C316.952 263.768 317.003 264.115 316.899 264.485C316.791 264.854 316.452 265.203 315.881 265.532C315.409 265.805 314.888 265.987 314.314 266.08C313.737 266.171 313.134 266.155 312.506 266.035C311.874 265.911 311.236 265.664 310.595 265.294L305.799 262.525L306.958 261.856L311.674 264.579C312.226 264.897 312.818 265.061 313.455 265.073C314.094 265.082 314.654 264.948 315.135 264.67C315.423 264.504 315.642 264.292 315.793 264.035C315.947 263.776 315.973 263.499 315.872 263.206C315.774 262.912 315.489 262.627 315.017 262.355ZM317.122 255.989L318.104 256.556L314.193 258.814L313.21 258.247L317.122 255.989ZM312.542 256.544L313.7 255.875L320.894 260.029C321.222 260.218 321.515 260.332 321.774 260.371C322.033 260.407 322.266 260.398 322.472 260.343C322.678 260.285 322.867 260.206 323.038 260.108C323.165 260.035 323.263 259.97 323.332 259.915C323.397 259.858 323.45 259.813 323.489 259.778L324.767 260.244C324.717 260.306 324.637 260.387 324.527 260.485C324.418 260.585 324.256 260.698 324.039 260.823C323.711 261.012 323.321 261.156 322.865 261.257C322.413 261.355 321.94 261.381 321.446 261.333C320.954 261.284 320.489 261.132 320.05 260.879L312.542 256.544Z" fill="white"/>
<path d="M622.668 133.577L250.22 348.591C238.757 355.209 238.757 365.938 250.22 372.556L273.282 385.869C284.745 392.487 303.33 392.487 314.793 385.869L687.241 170.855C698.704 164.237 698.704 153.508 687.241 146.89L664.18 133.577C652.717 126.959 634.131 126.959 622.668 133.577Z" fill="#1E1E1E" fill-opacity="0.42"/>
<path d="M319.406 359.242C325.774 355.566 325.774 349.605 319.406 345.928C313.038 342.252 302.712 342.252 296.344 345.928C289.976 349.605 289.976 355.566 296.344 359.242C302.712 362.918 313.038 362.918 319.406 359.242Z" fill="#D9D9D9"/>
<path d="M347.145 333.908L337.082 328.099L340.483 326.136C341.269 325.682 342.048 325.387 342.821 325.251C343.591 325.112 344.33 325.108 345.037 325.236C345.745 325.365 346.396 325.601 346.988 325.943C347.581 326.285 347.986 326.659 348.202 327.064C348.418 327.468 348.407 327.891 348.167 328.331C347.926 328.77 347.414 329.215 346.635 329.665L343.883 331.253L342.782 330.618L345.494 329.052C346.031 328.742 346.385 328.447 346.556 328.167C346.729 327.885 346.746 327.618 346.605 327.367C346.464 327.111 346.192 326.867 345.789 326.635C345.386 326.402 344.959 326.243 344.507 326.156C344.054 326.068 343.582 326.074 343.087 326.17C342.589 326.265 342.068 326.468 341.524 326.782L339.382 328.019L348.364 333.205L347.145 333.908ZM347.362 328.564L354.359 329.744L352.944 330.561L345.986 329.359L347.362 328.564ZM359.079 327.2C358.352 327.62 357.564 327.889 356.716 328.009C355.868 328.124 355.011 328.096 354.147 327.927C353.282 327.752 352.463 327.442 351.689 326.996C350.916 326.55 350.376 326.075 350.068 325.572C349.759 325.065 349.695 324.57 349.871 324.086C350.048 323.598 350.477 323.157 351.158 322.763C351.552 322.536 352.005 322.35 352.52 322.205C353.034 322.059 353.596 321.981 354.206 321.97C354.812 321.956 355.449 322.035 356.116 322.205C356.785 322.375 357.471 322.663 358.176 323.07L358.667 323.354L352.849 326.712L351.847 326.134L356.485 323.456C356.06 323.21 355.594 323.04 355.09 322.945C354.588 322.848 354.086 322.835 353.581 322.903C353.081 322.969 352.62 323.123 352.201 323.365C351.739 323.632 351.453 323.928 351.346 324.256C351.237 324.579 351.275 324.898 351.459 325.212C351.641 325.525 351.941 325.802 352.357 326.043L353.026 326.429C353.596 326.758 354.177 326.98 354.771 327.095C355.364 327.207 355.94 327.22 356.5 327.135C357.057 327.048 357.57 326.869 358.038 326.599C358.343 326.423 358.575 326.24 358.736 326.048C358.896 325.853 358.98 325.654 358.986 325.45C358.99 325.244 358.909 325.036 358.745 324.829L360.18 324.364C360.442 324.651 360.578 324.958 360.588 325.285C360.594 325.61 360.474 325.938 360.225 326.267C359.972 326.594 359.59 326.905 359.079 327.2ZM366.209 323.107C365.731 323.383 365.207 323.581 364.637 323.703C364.064 323.822 363.49 323.848 362.917 323.782C362.341 323.714 361.807 323.538 361.315 323.254C360.883 323.005 360.618 322.753 360.519 322.5C360.418 322.244 360.433 321.99 360.564 321.737C360.695 321.484 360.894 321.235 361.163 320.994C361.432 320.748 361.719 320.511 362.023 320.282C362.423 319.983 362.75 319.742 363.006 319.561C363.261 319.375 363.417 319.224 363.472 319.104C363.532 318.983 363.467 318.869 363.281 318.761L363.241 318.738C362.757 318.459 362.247 318.318 361.713 318.316C361.183 318.312 360.651 318.464 360.117 318.773C359.563 319.092 359.25 319.413 359.178 319.734C359.106 320.055 359.144 320.333 359.291 320.565L357.797 320.973C357.536 320.596 357.44 320.238 357.512 319.901C357.584 319.561 357.765 319.249 358.053 318.966C358.341 318.678 358.675 318.424 359.055 318.205C359.297 318.065 359.606 317.921 359.979 317.774C360.352 317.622 360.775 317.513 361.247 317.445C361.722 317.375 362.237 317.387 362.789 317.479C363.343 317.572 363.92 317.791 364.52 318.137L369.492 321.008L368.332 321.677L367.311 321.087L367.252 321.121C367.337 321.261 367.381 321.438 367.384 321.652C367.388 321.866 367.302 322.098 367.129 322.35C366.955 322.601 366.648 322.853 366.209 323.107ZM365.345 322.403C365.803 322.139 366.1 321.864 366.235 321.578C366.371 321.29 366.379 321.018 366.254 320.761C366.132 320.502 365.914 320.281 365.601 320.1L364.539 319.487C364.548 319.549 364.494 319.643 364.377 319.768C364.259 319.889 364.11 320.022 363.929 320.168C363.75 320.31 363.57 320.447 363.394 320.579C363.217 320.708 363.075 320.813 362.966 320.894C362.704 321.091 362.487 321.291 362.313 321.493C362.139 321.691 362.059 321.887 362.072 322.08C362.085 322.269 362.239 322.448 362.534 322.619C362.938 322.852 363.391 322.942 363.895 322.889C364.4 322.832 364.883 322.67 365.345 322.403ZM374.615 318.231C373.986 318.594 373.273 318.824 372.473 318.918C371.671 319.011 370.843 318.967 369.987 318.787C369.128 318.606 368.301 318.285 367.5 317.823C366.708 317.365 366.156 316.889 365.845 316.396C365.534 315.902 365.461 315.424 365.629 314.961C365.795 314.497 366.196 314.082 366.832 313.715C367.323 313.431 367.793 313.255 368.242 313.185C368.692 313.111 369.095 313.091 369.452 313.123C369.809 313.151 370.095 313.178 370.311 313.204L370.409 313.148L366.695 311.004L367.855 310.334L377.918 316.144L376.797 316.79L375.637 316.121L375.5 316.2C375.553 316.329 375.605 316.499 375.657 316.711C375.707 316.921 375.668 317.157 375.54 317.42C375.409 317.681 375.1 317.951 374.615 318.231ZM373.731 317.539C374.197 317.271 374.469 316.974 374.547 316.649C374.623 316.322 374.528 315.985 374.262 315.639C373.994 315.291 373.575 314.952 373.004 314.623C372.441 314.298 371.866 314.06 371.28 313.911C370.689 313.76 370.116 313.708 369.56 313.758C368.999 313.805 368.484 313.965 368.012 314.237C367.521 314.521 367.237 314.83 367.162 315.165C367.087 315.496 367.181 315.833 367.447 316.175C367.712 316.513 368.11 316.836 368.64 317.142C369.178 317.452 369.747 317.686 370.35 317.845C370.953 318.001 371.546 318.059 372.13 318.022C372.712 317.98 373.246 317.819 373.731 317.539ZM384.664 312.249L383.387 312.986L377.019 305.044L378.277 304.317L392.036 307.993L390.758 308.731L379.279 305.576L379.199 305.622L384.664 312.249ZM381.206 309.707L386.354 306.735L387.435 307.358L382.286 310.331L381.206 309.707ZM388.708 301.201L389.69 301.768L385.779 304.026L384.796 303.459L388.708 301.201ZM384.128 301.756L385.286 301.087L392.481 305.24C392.808 305.429 393.101 305.544 393.36 305.583C393.619 305.619 393.852 305.61 394.058 305.554C394.264 305.496 394.454 305.418 394.624 305.319C394.751 305.246 394.849 305.182 394.918 305.127C394.983 305.07 395.036 305.024 395.075 304.99L396.353 305.456C396.303 305.518 396.224 305.598 396.113 305.697C396.004 305.797 395.842 305.909 395.625 306.034C395.298 306.223 394.907 306.368 394.451 306.468C393.999 306.567 393.526 306.592 393.032 306.545C392.541 306.496 392.075 306.344 391.637 306.091L384.128 301.756ZM401.141 302.918C400.46 303.311 399.7 303.563 398.861 303.672C398.026 303.78 397.173 303.75 396.301 303.579C395.433 303.407 394.609 303.095 393.83 302.645C393.044 302.192 392.499 301.713 392.198 301.211C391.899 300.705 391.844 300.212 392.031 299.73C392.221 299.246 392.657 298.806 393.339 298.413C394.019 298.02 394.778 297.77 395.614 297.661C396.452 297.552 397.306 297.584 398.178 297.759C399.052 297.93 399.883 298.244 400.669 298.697C401.448 299.147 401.986 299.624 402.281 300.127C402.579 300.628 402.634 301.12 402.443 301.604C402.257 302.087 401.822 302.525 401.141 302.918ZM400.1 302.316C400.617 302.018 400.911 301.695 400.979 301.35C401.048 301.004 400.947 300.659 400.674 300.317C400.402 299.975 400.015 299.658 399.51 299.366C399.006 299.075 398.455 298.85 397.859 298.691C397.264 298.533 396.663 298.472 396.06 298.51C395.458 298.547 394.897 298.716 394.381 299.015C393.863 299.314 393.57 299.637 393.506 299.985C393.44 300.333 393.545 300.68 393.819 301.023C394.095 301.367 394.485 301.685 394.989 301.976C395.494 302.268 396.042 302.492 396.635 302.649C397.228 302.806 397.825 302.864 398.425 302.824C399.023 302.785 399.582 302.615 400.1 302.316ZM406.175 299.831L398.628 295.474L399.747 294.828L400.926 295.508L401.024 295.451C400.779 295.128 400.721 294.801 400.847 294.469C400.972 294.137 401.28 293.828 401.771 293.545C402.269 293.257 402.796 293.083 403.353 293.023C403.911 292.959 404.484 292.989 405.073 293.113L405.152 293.068C404.956 292.731 404.936 292.386 405.093 292.03C405.246 291.673 405.594 291.338 406.134 291.026C406.809 290.636 407.573 290.44 408.424 290.436C409.273 290.431 410.14 290.684 411.028 291.196L416.08 294.113L414.921 294.782L409.869 291.865C409.312 291.544 408.762 291.402 408.219 291.44C407.674 291.478 407.196 291.616 406.784 291.855C406.253 292.161 406.003 292.49 406.032 292.844C406.058 293.196 406.314 293.513 406.803 293.795L411.716 296.632L410.538 297.312L405.369 294.328C404.94 294.08 404.454 293.961 403.913 293.971C403.37 293.978 402.879 294.109 402.44 294.362C402.139 294.536 401.937 294.744 401.836 294.989C401.738 295.231 401.75 295.481 401.875 295.738C401.998 295.991 402.246 296.225 402.616 296.438L407.334 299.162L406.175 299.831ZM418.2 292.888L410.653 288.532L411.813 287.862L419.36 292.219L418.2 292.888ZM409.986 287.464C409.76 287.595 409.488 287.663 409.169 287.668C408.854 287.673 408.589 287.612 408.374 287.487C408.157 287.362 408.052 287.21 408.059 287.027C408.069 286.844 408.187 286.687 408.413 286.556C408.639 286.426 408.909 286.359 409.222 286.355C409.542 286.349 409.808 286.409 410.025 286.534C410.24 286.658 410.344 286.813 410.333 286.996C410.327 287.178 410.212 287.334 409.986 287.464ZM424.707 289.313C423.999 289.722 423.223 289.977 422.379 290.079C421.534 290.181 420.681 290.143 419.818 289.963C418.957 289.784 418.15 289.476 417.395 289.041C416.63 288.599 416.094 288.127 415.789 287.625C415.485 287.12 415.42 286.626 415.598 286.142C415.774 285.654 416.203 285.213 416.885 284.82C417.415 284.514 417.993 284.295 418.614 284.162C419.237 284.029 419.861 283.987 420.487 284.034C421.113 284.081 421.694 284.223 422.231 284.457L421.071 285.127C420.638 284.979 420.137 284.916 419.568 284.939C418.997 284.958 418.457 285.115 417.947 285.41C417.495 285.671 417.216 285.968 417.112 286.301C417.006 286.63 417.071 286.973 417.308 287.327C417.544 287.679 417.947 288.02 418.516 288.348C419.1 288.685 419.698 288.926 420.314 289.069C420.933 289.211 421.532 289.253 422.108 289.197C422.688 289.138 423.207 288.977 423.666 288.712C423.967 288.538 424.189 288.35 424.33 288.147C424.471 287.945 424.527 287.738 424.502 287.526C424.475 287.314 424.361 287.108 424.157 286.908L425.317 286.238C425.697 286.533 425.935 286.859 426.034 287.214C426.132 287.566 426.075 287.924 425.863 288.289C425.649 288.651 425.264 288.992 424.707 289.313ZM433.262 284.193L423.199 278.384L424.418 277.68L428.899 280.267L434.265 277.169L429.784 274.582L431.002 273.879L441.065 279.689L439.847 280.392L435.347 277.793L429.98 280.892L434.481 283.49L433.262 284.193ZM445.745 277.19C445.267 277.467 444.743 277.665 444.174 277.786C443.601 277.905 443.026 277.932 442.453 277.866C441.877 277.798 441.343 277.622 440.852 277.338C440.419 277.089 440.154 276.837 440.056 276.583C439.953 276.328 439.969 276.074 440.1 275.82C440.231 275.567 440.431 275.319 440.699 275.078C440.968 274.832 441.255 274.594 441.56 274.365C441.96 274.066 442.286 273.826 442.542 273.645C442.797 273.459 442.954 273.307 443.009 273.188C443.068 273.067 443.003 272.953 442.816 272.845L442.777 272.822C442.293 272.543 441.783 272.401 441.249 272.4C440.719 272.396 440.187 272.548 439.653 272.856C439.1 273.176 438.786 273.497 438.714 273.818C438.642 274.139 438.68 274.417 438.827 274.649L437.333 275.057C437.072 274.679 436.976 274.322 437.048 273.985C437.12 273.645 437.301 273.333 437.589 273.049C437.878 272.762 438.211 272.508 438.592 272.288C438.834 272.149 439.142 272.005 439.515 271.858C439.889 271.706 440.311 271.597 440.784 271.529C441.257 271.459 441.773 271.47 442.325 271.563C442.88 271.655 443.456 271.875 444.056 272.221L449.028 275.092L447.868 275.761L446.846 275.171L446.788 275.205C446.873 275.345 446.917 275.522 446.92 275.736C446.924 275.95 446.838 276.181 446.664 276.434C446.491 276.685 446.185 276.937 445.745 277.19ZM444.88 276.487C445.339 276.222 445.636 275.948 445.771 275.662C445.908 275.374 445.915 275.102 445.79 274.845C445.668 274.586 445.45 274.365 445.136 274.184L444.074 273.571C444.085 273.633 444.031 273.727 443.913 273.852C443.795 273.973 443.645 274.106 443.466 274.251C443.286 274.394 443.107 274.53 442.931 274.663C442.753 274.792 442.611 274.896 442.503 274.978C442.24 275.175 442.023 275.374 441.849 275.576C441.675 275.775 441.594 275.971 441.608 276.164C441.622 276.353 441.775 276.532 442.07 276.702C442.474 276.935 442.927 277.025 443.432 276.972C443.936 276.915 444.419 276.754 444.88 276.487ZM451.302 273.779L441.239 267.969L442.399 267.3L446.113 269.444L446.211 269.387C446.166 269.263 446.117 269.098 446.065 268.894C446.012 268.686 446.049 268.453 446.172 268.196C446.296 267.935 446.604 267.663 447.096 267.379C447.731 267.012 448.45 266.781 449.253 266.685C450.056 266.587 450.885 266.629 451.74 266.809C452.593 266.989 453.418 267.308 454.21 267.765C455.01 268.227 455.566 268.705 455.882 269.2C456.193 269.694 456.268 270.173 456.108 270.635C455.944 271.097 455.547 271.509 454.918 271.872C454.433 272.153 453.966 272.33 453.514 272.406C453.058 272.48 452.649 272.502 452.284 272.474C451.918 272.443 451.624 272.413 451.4 272.383L451.263 272.462L452.423 273.132L451.302 273.779ZM448.668 270.942C449.239 271.271 449.825 271.513 450.428 271.669C451.028 271.822 451.61 271.877 452.177 271.833C452.74 271.788 453.254 271.631 453.72 271.362C454.204 271.082 454.481 270.775 454.55 270.44C454.618 270.102 454.517 269.759 454.245 269.413C453.973 269.063 453.569 268.733 453.032 268.423C452.501 268.117 451.941 267.888 451.352 267.736C450.761 267.582 450.179 267.527 449.602 267.572C449.025 267.614 448.492 267.776 448.001 268.06C447.528 268.333 447.251 268.63 447.169 268.954C447.084 269.275 447.173 269.606 447.436 269.946C447.694 270.285 448.106 270.617 448.668 270.942ZM459.739 268.908L452.192 264.551L453.351 263.882L460.898 268.239L459.739 268.908ZM451.523 263.485C451.297 263.615 451.025 263.683 450.707 263.688C450.393 263.692 450.127 263.632 449.911 263.507C449.695 263.382 449.591 263.229 449.597 263.047C449.607 262.864 449.725 262.707 449.951 262.577C450.177 262.446 450.448 262.379 450.761 262.375C451.079 262.37 451.346 262.429 451.563 262.554C451.778 262.679 451.882 262.833 451.872 263.016C451.866 263.198 451.749 263.354 451.523 263.485ZM458.758 260.761L459.74 261.328L455.829 263.586L454.847 263.019L458.758 260.761ZM454.178 261.316L455.337 260.647L462.531 264.8C462.858 264.989 463.151 265.104 463.411 265.143C463.669 265.179 463.902 265.17 464.108 265.114C464.315 265.056 464.504 264.978 464.674 264.879C464.801 264.806 464.899 264.742 464.968 264.687C465.033 264.63 465.086 264.584 465.125 264.55L466.403 265.016C466.353 265.078 466.274 265.158 466.163 265.257C466.055 265.357 465.892 265.469 465.675 265.594C465.348 265.783 464.957 265.928 464.501 266.028C464.049 266.127 463.577 266.152 463.082 266.105C462.591 266.056 462.125 265.904 461.687 265.651L454.178 261.316ZM467.403 257.721L466.657 258.492C466.418 258.43 466.151 258.388 465.86 258.368C465.568 258.343 465.26 258.362 464.936 258.424C464.612 258.487 464.281 258.616 463.944 258.81C463.482 259.077 463.203 259.361 463.109 259.662C463.013 259.958 463.128 260.2 463.452 260.387C463.74 260.554 464.074 260.625 464.451 260.6C464.827 260.575 465.294 260.467 465.851 260.274L467.246 259.786C468.084 259.491 468.838 259.346 469.506 259.349C470.171 259.351 470.767 259.505 471.294 259.809C471.727 260.058 471.988 260.353 472.081 260.694C472.175 261.032 472.1 261.386 471.855 261.755C471.609 262.123 471.193 262.477 470.606 262.816C469.837 263.26 469.032 263.531 468.195 263.63C467.355 263.728 466.548 263.631 465.772 263.338L466.597 262.543C467.107 262.717 467.611 262.779 468.106 262.728C468.604 262.675 469.09 262.512 469.565 262.237C470.105 261.925 470.42 261.612 470.509 261.295C470.597 260.976 470.479 260.723 470.154 260.535C469.892 260.384 469.582 260.31 469.221 260.313C468.858 260.315 468.442 260.401 467.973 260.569L466.42 261.125C465.566 261.429 464.804 261.576 464.136 261.565C463.467 261.549 462.872 261.392 462.351 261.091C461.925 260.845 461.668 260.558 461.58 260.232C461.495 259.902 461.567 259.564 461.796 259.216C462.029 258.866 462.411 258.537 462.941 258.231C463.687 257.801 464.438 257.556 465.191 257.5C465.949 257.442 466.687 257.515 467.403 257.721Z" fill="white"/>
<path fill-rule="evenodd" clip-rule="evenodd" d="M21.9087 216.787C10.4457 223.404 10.4457 234.134 21.9087 240.751L44.9705 254.065C56.4335 260.682 75.0187 260.682 86.4817 254.065L458.93 39.0505C470.393 32.4329 470.393 21.7036 458.93 15.0861L435.868 1.77248C424.405 -4.84512 405.82 -4.84512 394.357 1.77248L21.9087 216.787ZM98.0126 260.721C86.5496 267.339 86.5496 278.068 98.0126 284.686L121.074 298C132.537 304.617 151.123 304.617 162.586 298L535.034 82.9853C546.497 76.3677 546.497 65.6384 535.034 59.0208L511.972 45.7073C500.509 39.0897 481.924 39.0897 470.461 45.7073L98.0126 260.721ZM174.117 328.621C162.654 322.003 162.654 311.274 174.117 304.656L546.565 89.6421C558.028 83.0245 576.613 83.0245 588.076 89.6421L611.138 102.956C622.601 109.573 622.601 120.302 611.138 126.92L238.69 341.934C227.227 348.552 208.641 348.552 197.178 341.934L174.117 328.621ZM250.22 348.591C238.757 355.209 238.757 365.938 250.22 372.556L273.282 385.869C284.745 392.487 303.33 392.487 314.793 385.869L687.241 170.855C698.704 164.237 698.704 153.508 687.241 146.89L664.18 133.577C652.717 126.959 634.131 126.959 622.668 133.577L250.22 348.591Z" fill="url(#paint1_linear_1_93)" fill-opacity="0.42"/>
<defs>
<filter id="filter0_f_1_93" x="2.08766" y="19.9606" width="708.981" height="417.918" filterUnits="userSpaceOnUse" color-interpolation-filters="sRGB">
<feFlood flood-opacity="0" result="BackgroundImageFix"/>
<feBlend mode="normal" in="SourceGraphic" in2="BackgroundImageFix" result="shape"/>
<feGaussianBlur stdDeviation="5.1" result="effect1_foregroundBlur_1_93"/>
</filter>
<linearGradient id="paint0_linear_1_93" x1="496.102" y1="210.28" x2="15.0915" y2="335.816" gradientUnits="userSpaceOnUse">
<stop stop-color="#1E1E1E" stop-opacity="0"/>
<stop offset="1" stop-color="#848484" stop-opacity="0.86"/>
</linearGradient>
<linearGradient id="paint1_linear_1_93" x1="494.099" y1="175.182" x2="13.0884" y2="300.717" gradientUnits="userSpaceOnUse">
<stop stop-color="#1E1E1E" stop-opacity="0"/>
<stop offset="1" stop-color="#848484" stop-opacity="0.86"/>
</linearGradient>
</defs>
</svg>
