<svg width="500" height="500" viewBox="0 0 500 500" fill="none" xmlns="http://www.w3.org/2000/svg">
<path fill-rule="evenodd" clip-rule="evenodd" d="M460.862 250.431C460.862 366.649 366.649 460.862 250.431 460.862C134.213 460.862 40 366.649 40 250.431C40 134.213 134.213 40 250.431 40C366.649 40 460.862 134.213 460.862 250.431ZM250.431 458.862C365.545 458.862 458.862 365.545 458.862 250.431C458.862 135.318 365.545 42 250.431 42C135.318 42 42 135.318 42 250.431C42 365.545 135.318 458.862 250.431 458.862ZM383.283 250.948C383.283 324.606 323.571 384.317 249.914 384.317C176.257 384.317 116.545 324.606 116.545 250.948C116.545 177.291 176.257 117.58 249.914 117.58C323.571 117.58 383.283 177.291 383.283 250.948ZM249.914 382.317C322.467 382.317 381.283 323.501 381.283 250.948C381.283 178.396 322.467 119.58 249.914 119.58C177.361 119.58 118.545 178.396 118.545 250.948C118.545 323.501 177.361 382.317 249.914 382.317ZM249.914 302.668C278.478 302.668 301.634 279.513 301.634 250.948C301.634 222.384 278.478 199.229 249.914 199.229C221.35 199.229 198.194 222.384 198.194 250.948C198.194 279.513 221.35 302.668 249.914 302.668Z" fill="url(#paint0_linear_1_3)" fill-opacity="0.25"/>
<circle cx="249.5" cy="249.5" r="38.5" fill="#D9D9D9" fill-opacity="0.34"/>
<path d="M270 249.5C270 251.631 268.272 253.359 266.141 253.359H261.88C257.396 253.359 253.761 256.994 253.761 261.478V265.739C253.761 268.092 251.853 270 249.5 270C247.147 270 245.239 268.092 245.239 265.739V261.478C245.239 256.994 241.604 253.359 237.12 253.359H232.859C230.728 253.359 229 251.631 229 249.5C229 247.369 230.728 245.641 232.859 245.641H237.12C241.604 245.641 245.239 242.006 245.239 237.522V233.261C245.239 230.908 247.147 229 249.5 229C251.853 229 253.761 230.908 253.761 233.261V237.522C253.761 242.006 257.396 245.641 261.88 245.641H266.141C268.272 245.641 270 247.369 270 249.5Z" fill="white"/>
<circle cx="158.5" cy="160.5" r="35.5" fill="#D9D9D9" fill-opacity="0.15"/>
<mask id="mask0_1_3" style="mask-type:alpha" maskUnits="userSpaceOnUse" x="139" y="141" width="39" height="39">
<path d="M168.763 150.237L159.526 149.21L148.237 150.237L147.21 160.5L148.237 170.763L158.5 172.046L168.763 170.763L169.79 160.244L168.763 150.237Z" fill="white"/>
<path d="M152.447 166.16C151.68 165.642 151.149 164.885 150.859 163.884L152.64 163.15C152.802 163.766 153.084 164.243 153.487 164.582C153.887 164.921 154.374 165.088 154.944 165.088C155.526 165.088 156.027 164.911 156.445 164.556C156.863 164.202 157.074 163.751 157.074 163.204C157.074 162.645 156.853 162.188 156.412 161.834C155.97 161.48 155.416 161.303 154.754 161.303H153.725V159.54H154.649C155.218 159.54 155.698 159.387 156.088 159.079C156.478 158.771 156.673 158.35 156.673 157.814C156.673 157.337 156.499 156.957 156.15 156.672C155.801 156.387 155.36 156.244 154.823 156.244C154.3 156.244 153.884 156.382 153.576 156.662C153.268 156.941 153.045 157.285 152.904 157.691L151.141 156.957C151.375 156.295 151.804 155.71 152.432 155.204C153.061 154.699 153.864 154.445 154.839 154.445C155.56 154.445 156.209 154.584 156.784 154.863C157.358 155.143 157.81 155.53 158.136 156.023C158.462 156.518 158.623 157.072 158.623 157.688C158.623 158.317 158.472 158.848 158.169 159.284C157.866 159.72 157.494 160.053 157.053 160.287V160.392C157.635 160.636 158.11 161.008 158.485 161.508C158.857 162.009 159.044 162.607 159.044 163.304C159.044 164.002 158.867 164.626 158.513 165.172C158.159 165.719 157.669 166.15 157.048 166.463C156.424 166.776 155.724 166.935 154.946 166.935C154.046 166.938 153.215 166.678 152.447 166.16Z" fill="#1A73E8"/>
<path d="M163.375 157.324L161.43 158.737L160.453 157.254L163.96 154.724H165.305V166.658H163.375V157.324Z" fill="#1A73E8"/>
<path d="M168.763 180L178 170.763L173.382 168.711L168.763 170.763L166.711 175.382L168.763 180Z" fill="#EA4335"/>
<path d="M146.184 175.382L148.237 180H168.763V170.763H148.237L146.184 175.382Z" fill="#34A853"/>
<path d="M142.079 141C140.378 141 139 142.378 139 144.079V170.763L143.618 172.816L148.237 170.763V150.237H168.763L170.816 145.618L168.763 141H142.079Z" fill="#4285F4"/>
<path d="M139 170.763V176.921C139 178.622 140.378 180 142.079 180H148.237V170.763H139Z" fill="#188038"/>
<path d="M168.763 150.237V170.763H178V150.237L173.382 148.184L168.763 150.237Z" fill="#FBBC04"/>
<path d="M178 150.237V144.079C178 142.378 176.622 141 174.921 141H168.763V150.237H178Z" fill="#1967D2"/>
</mask>
<g mask="url(#mask0_1_3)">
<path d="M168.763 150.237L159.526 149.21L148.237 150.237L147.21 160.5L148.237 170.763L158.5 172.046L168.763 170.763L169.79 160.244L168.763 150.237Z" fill="white"/>
<path d="M152.447 166.16C151.68 165.642 151.149 164.885 150.859 163.884L152.64 163.15C152.802 163.766 153.084 164.243 153.487 164.582C153.887 164.921 154.374 165.088 154.944 165.088C155.526 165.088 156.027 164.911 156.445 164.556C156.863 164.202 157.074 163.751 157.074 163.204C157.074 162.645 156.853 162.188 156.412 161.834C155.97 161.48 155.416 161.303 154.754 161.303H153.725V159.54H154.649C155.218 159.54 155.698 159.387 156.088 159.079C156.478 158.771 156.673 158.35 156.673 157.814C156.673 157.337 156.499 156.957 156.15 156.672C155.801 156.387 155.36 156.244 154.823 156.244C154.3 156.244 153.884 156.382 153.576 156.662C153.268 156.941 153.045 157.285 152.904 157.691L151.141 156.957C151.375 156.295 151.804 155.71 152.432 155.204C153.061 154.699 153.864 154.445 154.839 154.445C155.56 154.445 156.209 154.584 156.784 154.863C157.358 155.143 157.81 155.53 158.136 156.023C158.462 156.518 158.623 157.072 158.623 157.688C158.623 158.317 158.472 158.848 158.169 159.284C157.866 159.72 157.494 160.053 157.053 160.287V160.392C157.635 160.636 158.11 161.008 158.485 161.508C158.857 162.009 159.044 162.607 159.044 163.304C159.044 164.002 158.867 164.626 158.513 165.172C158.159 165.719 157.669 166.15 157.048 166.463C156.424 166.776 155.724 166.935 154.946 166.935C154.046 166.938 153.215 166.678 152.447 166.16Z" fill="#1A73E8"/>
<path d="M163.375 157.324L161.43 158.737L160.453 157.254L163.96 154.724H165.305V166.658H163.375V157.324Z" fill="#1A73E8"/>
<path d="M168.763 180L178 170.763L173.382 168.711L168.763 170.763L166.711 175.382L168.763 180Z" fill="#EA4335"/>
<path d="M146.184 175.382L148.237 180H168.763V170.763H148.237L146.184 175.382Z" fill="#34A853"/>
<path d="M142.079 141C140.378 141 139 142.378 139 144.079V170.763L143.618 172.816L148.237 170.763V150.237H168.763L170.816 145.618L168.763 141H142.079Z" fill="#4285F4"/>
<path d="M139 170.763V176.921C139 178.622 140.378 180 142.079 180H148.237V170.763H139Z" fill="#188038"/>
<path d="M168.763 150.237V170.763H178V150.237L173.382 148.184L168.763 150.237Z" fill="#FBBC04"/>
<path d="M178 150.237V144.079C178 142.378 176.622 141 174.921 141H168.763V150.237H178Z" fill="#1967D2"/>
<rect x="139" y="141" width="39" height="39" fill="black" style="mix-blend-mode:saturation"/>
</g>
<defs>
<linearGradient id="paint0_linear_1_3" x1="178.047" y1="172.36" x2="469.135" y2="483.612" gradientUnits="userSpaceOnUse">
<stop stop-color="white"/>
<stop offset="1" stop-opacity="0"/>
</linearGradient>
</defs>
</svg>
