<svg width="879" height="265" viewBox="0 0 879 265" fill="none" xmlns="http://www.w3.org/2000/svg">
<path d="M30.1704 203C13.9855 203 0.86499 189.88 0.86499 173.695V67.728C0.86499 52.3641 13.3199 39.9091 28.6839 39.9091H41.0006C49.5622 39.9091 56.5028 46.8496 56.5028 55.4112V69.9261C56.5028 70.4713 56.9448 70.9133 57.4901 70.9133V70.9133C57.915 70.9133 58.2917 70.6404 58.431 70.239C61.8578 60.3636 67.5857 52.5188 75.615 46.7045C83.8262 40.7585 93.5946 37.7855 104.92 37.7855C116.388 37.7855 126.262 40.8293 134.544 46.9169C142.582 52.756 147.519 60.4616 149.356 70.034C149.454 70.5407 149.893 70.9133 150.409 70.9133V70.9133C150.885 70.9133 151.301 70.595 151.436 70.1386C154.283 60.5178 160.084 52.7772 168.84 46.9169C177.83 40.8293 188.377 37.7855 200.481 37.7855C216.125 37.7855 228.796 42.8113 238.494 52.8629C248.262 62.9145 253.146 76.2931 253.146 92.9986V173.695C253.146 189.88 240.026 203 223.841 203V203C207.656 203 194.535 189.88 194.535 173.695V107.864C194.535 100.714 192.73 95.1222 189.12 91.0874C185.51 86.9818 180.661 84.929 174.574 84.929C168.557 84.929 163.779 86.9818 160.24 91.0874C156.771 95.1222 155.037 100.714 155.037 107.864V174.969C155.037 190.45 142.487 203 127.006 203V203C111.524 203 98.9744 190.45 98.9744 174.969V107.864C98.9744 100.714 97.1693 95.1222 93.5592 91.0874C89.9492 86.9818 85.1003 84.929 79.0127 84.929C74.9779 84.929 71.5094 85.8492 68.6072 87.6896C65.705 89.5301 63.4398 92.1845 61.8117 95.653C60.2544 99.0508 59.4758 103.121 59.4758 107.864V173.695C59.4758 189.88 46.3553 203 30.1704 203V203Z" fill="white"/>
<path d="M333.478 205.548C323.073 205.548 313.87 203.849 305.872 200.452C297.944 196.983 291.714 191.745 287.184 184.737C282.654 177.729 280.389 168.81 280.389 157.98C280.389 149.061 281.91 141.452 284.954 135.152C287.998 128.781 292.245 123.578 297.696 119.543C303.146 115.509 309.482 112.429 316.702 110.306C323.993 108.182 331.85 106.802 340.274 106.165C349.405 105.457 356.731 104.607 362.253 103.616C367.845 102.555 371.879 101.104 374.357 99.2631C376.835 97.3519 378.073 94.839 378.073 91.7244V91.2997C378.073 87.0526 376.445 83.7964 373.189 81.5313C369.933 79.2661 365.756 78.1335 360.66 78.1335C355.068 78.1335 350.502 79.3723 346.963 81.8498V81.8498C340.753 86.1587 335.078 92.9986 327.519 92.9986H316.074C300.233 92.9986 287.397 78.7673 296.209 65.6044V65.6044C301.872 57.1809 310.119 50.4562 320.949 45.4304C331.779 40.3338 345.299 37.7855 361.509 37.7855C373.189 37.7855 383.665 39.1658 392.938 41.9265C402.211 44.6164 410.104 48.4034 416.616 53.2876C423.129 58.1011 428.084 63.764 431.481 70.2763C434.95 76.7178 436.684 83.7256 436.684 91.2997V175.606C436.684 190.735 424.419 203 409.29 203H393.363C387.03 203 381.896 197.866 381.896 191.533V180.862C381.896 180.422 381.539 180.065 381.099 180.065V180.065C380.805 180.065 380.535 180.228 380.395 180.486C377.182 186.38 373.293 191.159 368.729 194.824C364.128 198.576 358.855 201.301 352.909 203C347.034 204.699 340.557 205.548 333.478 205.548ZM352.59 168.598C357.05 168.598 361.226 167.678 365.119 165.837C369.083 163.997 372.304 161.342 374.782 157.874C377.259 154.405 378.498 150.194 378.498 145.239V136.956C378.498 134.423 375.92 132.681 373.508 133.453V133.453C371.809 134.019 369.968 134.55 367.986 135.045C366.075 135.541 364.022 136.001 361.828 136.426C359.704 136.85 357.475 137.24 355.139 137.594C350.608 138.302 346.892 139.47 343.99 141.098C341.158 142.655 339.035 144.602 337.619 146.938C336.274 149.203 335.602 151.751 335.602 154.582C335.602 159.113 337.194 162.581 340.38 164.988C343.565 167.395 347.635 168.598 352.59 168.598Z" fill="white"/>
<path d="M546.693 39.9091C558.421 39.9091 567.929 49.4167 567.929 61.1449V61.1449C567.929 72.8731 558.421 82.3807 546.693 82.3807H481.711C469.983 82.3807 460.476 72.8731 460.476 61.1449V61.1449C460.476 49.4167 469.983 39.9091 481.711 39.9091H546.693ZM481.287 30.1406C481.287 13.9557 494.407 0.835224 510.592 0.835224V0.835224C526.777 0.835224 539.897 13.9557 539.897 30.1406V150.548C539.897 152.813 540.287 154.724 541.065 156.281C541.844 157.768 543.047 158.9 544.675 159.679C546.304 160.387 548.392 160.741 550.94 160.741C552.71 160.741 554.762 160.528 557.098 160.104V160.104C560.007 159.59 562.904 161.453 563.501 164.345L568.556 188.863C569.883 195.297 566.047 201.622 559.647 203.106V203.106C554.833 204.239 549.1 204.982 542.446 205.336C528.996 206.044 517.706 204.663 508.575 201.195C499.443 197.656 492.577 192.099 487.976 184.525C483.375 176.951 481.145 167.465 481.287 156.069V30.1406Z" fill="white"/>
<path d="M673.85 39.9091C685.578 39.9091 695.085 49.4167 695.085 61.1449V61.1449C695.085 72.8731 685.578 82.3807 673.85 82.3807H608.868C597.14 82.3807 587.632 72.8731 587.632 61.1449V61.1449C587.632 49.4167 597.14 39.9091 608.868 39.9091H673.85ZM608.443 30.1406C608.443 13.9557 621.564 0.835224 637.749 0.835224V0.835224C653.934 0.835224 667.054 13.9557 667.054 30.1406V150.548C667.054 152.813 667.444 154.724 668.222 156.281C669.001 157.768 670.204 158.9 671.832 159.679C673.46 160.387 675.549 160.741 678.097 160.741C679.866 160.741 681.919 160.528 684.255 160.104V160.104C687.164 159.59 690.061 161.453 690.658 164.345L695.713 188.863C697.04 195.297 693.204 201.622 686.803 203.106V203.106C681.99 204.239 676.256 204.982 669.602 205.336C656.153 206.044 644.863 204.663 635.731 201.195C626.6 197.656 619.734 192.099 615.133 184.525C610.532 176.951 608.302 167.465 608.443 156.069V30.1406Z" fill="white"/>
<path d="M760.658 264.159C753.934 264.159 747.528 263.628 741.44 262.566V262.566C732.218 261.065 727.528 251.498 730.263 242.564L734.168 229.805C736.339 222.715 743.957 219.175 751.315 220.095V220.095C755.349 220.59 758.783 220.307 761.614 219.245C764.516 218.184 766.604 216.166 767.879 213.193V213.193C768.699 211.279 768.785 209.129 768.121 207.155L724.243 76.8213C718.137 58.6858 731.628 39.9091 750.764 39.9091V39.9091C763.772 39.9091 775.064 48.8723 778.017 61.5405L799.114 152.055C799.228 152.54 799.66 152.884 800.159 152.884V152.884C800.655 152.884 801.087 152.542 801.202 152.058L822.621 61.6234C825.635 48.8965 837 39.9091 850.078 39.9091V39.9091C869.373 39.9091 882.976 58.8403 876.822 77.1268L829.887 216.591C826.914 225.581 822.596 233.65 816.933 240.8C811.341 248.02 803.979 253.718 794.848 257.895C785.717 262.071 774.32 264.159 760.658 264.159Z" fill="white"/>
</svg>
