<svg width="323" height="171" viewBox="0 0 323 171" fill="none" xmlns="http://www.w3.org/2000/svg">
<path d="M30.3182 171C13.5739 171 0 157.426 0 140.682V30.9782C0 15.0833 12.8854 2.19794 28.7803 2.19794H41.5156C50.377 2.19794 57.5606 9.38152 57.5606 18.2429V33.2666C57.5606 33.8306 58.0179 34.2879 58.5819 34.2879C59.0216 34.2879 59.4113 34.0055 59.5554 33.5901C63.1006 23.3689 69.0265 15.2493 77.3333 9.23135C85.8283 3.07712 95.9343 0 107.652 0C119.515 0 129.731 3.15038 138.299 9.45115C146.614 15.4948 151.722 23.4704 153.623 33.3781C153.724 33.9024 154.178 34.2879 154.712 34.2879C155.205 34.2879 155.635 33.9585 155.775 33.4864C158.72 23.5285 164.722 15.5168 173.78 9.45115C183.081 3.15038 193.992 0 206.515 0C222.7 0 235.808 5.2018 245.841 15.6054C255.947 26.009 261 39.856 261 57.1465V140.682C261 157.426 247.426 171 230.682 171C213.938 171 200.364 157.426 200.364 140.682V72.5321C200.364 65.1324 198.496 59.3445 194.761 55.1684C191.027 50.919 186.01 48.7943 179.712 48.7943C173.487 48.7943 168.544 50.919 164.883 55.1684C161.294 59.3445 159.5 65.1324 159.5 72.5321V142C159.5 158.016 146.516 171 130.5 171C114.484 171 101.5 158.016 101.5 142V72.5321C101.5 65.1324 99.6326 59.3445 95.8977 55.1684C92.1629 50.919 87.1465 48.7943 80.8485 48.7943C76.6742 48.7943 73.0859 49.7468 70.0833 51.6517C67.0808 53.5565 64.7374 56.304 63.053 59.8939C61.4419 63.4107 60.6364 67.6234 60.6364 72.5321V140.682C60.6364 157.426 47.0625 171 30.3182 171Z" fill="white"/>
<path d="M290 140C290 135.029 294.029 131 299 131H314C318.971 131 323 135.029 323 140V162C323 166.971 318.971 171 314 171H299C294.029 171 290 166.971 290 162V140Z" fill="white"/>
</svg>
